<svg width="16" height="16" viewBox="0 0 16 16" fill="none" xmlns="http://www.w3.org/2000/svg">
<path d="M7.52 0H8.48V4.05333C9.47556 4.16 10.3111 4.58667 10.9867 5.33333C11.6622 6.08 12 6.96889 12 8C12 9.03111 11.6622 9.92 10.9867 10.6667C10.3111 11.4133 9.47556 11.84 8.48 11.9467V16H7.52V11.9467C6.52444 11.84 5.68889 11.4133 5.01333 10.6667C4.33778 9.92 4 9.03111 4 8C4 6.96889 4.33778 6.08 5.01333 5.33333C5.68889 4.58667 6.52444 4.16 7.52 4.05333V0ZM8 10.6133C8.71111 10.6133 9.31556 10.3644 9.81333 9.86667C10.3467 9.33333 10.6133 8.71111 10.6133 8C10.6133 7.28889 10.3467 6.68444 9.81333 6.18667C9.31556 5.65333 8.71111 5.38667 8 5.38667C7.28889 5.38667 6.66667 5.65333 6.13333 6.18667C5.63556 6.68444 5.38667 7.28889 5.38667 8C5.38667 8.71111 5.63556 9.33333 6.13333 9.86667C6.66667 10.3644 7.28889 10.6133 8 10.6133Z" fill="#A0A0A0"/>
</svg>
