<svg width="16" height="16" viewBox="0 0 16 16" fill="none" xmlns="http://www.w3.org/2000/svg">
<path d="M8 8.69333L11.6267 12.3733L12.3733 11.6267L8.69333 8L12.3733 4.37333L11.6267 3.62667L8 7.30667L4.37333 3.62667L3.62667 4.37333L7.30667 8L3.62667 11.6267L4.37333 12.3733L8 8.69333Z" fill="#CCCCCC"/>
	<path fill-rule="evenodd" clip-rule="evenodd" d="M10 3h3v1h-1v9l-1 1H4l-1-1V4H2V3h3V2a1 1 0 0 1 1-1h3a1 1 0 0 1 1 1v1zM9 2H6v1h3V2zM4 13h7V4H4v9zm2-8H5v7h1V5zm1 0h1v7H7V5zm2 0h1v7H9V5z" fill="#cccccc"/>
</svg>
