<svg width="16" height="16" viewBox="0 0 16 16" fill="none" xmlns="http://www.w3.org/2000/svg">
<path d="M8 4C8.35556 4 8.71111 4.05333 9.06667 4.16C9.74222 4.33778 10.3289 4.67556 10.8267 5.17333C11.3244 5.67111 11.6622 6.25778 11.84 6.93333C11.9467 7.28889 12 7.64444 12 8C12 8.35556 11.9467 8.71111 11.84 9.06667C11.6622 9.74222 11.3244 10.3289 10.8267 10.8267C10.3289 11.3244 9.74222 11.6622 9.06667 11.84C8.71111 11.9467 8.35556 12 8 12C7.64444 12 7.28889 11.9467 6.93333 11.84C6.25778 11.6622 5.67111 11.3244 5.17333 10.8267C4.67556 10.3289 4.33778 9.74222 4.16 9.06667C4.05333 8.71111 4 8.35556 4 8C4 7.64444 4.03556 7.30667 4.10667 6.98667C4.21333 6.63111 4.35556 6.29333 4.53333 5.97333C4.88889 5.36889 5.36889 4.88889 5.97333 4.53333C6.29333 4.35556 6.61333 4.23111 6.93333 4.16C7.28889 4.05333 7.64444 4 8 4Z" fill="#CCCCCC"/>
</svg>
