<svg width="16" height="16" viewBox="0 0 16 16" fill="none" xmlns="http://www.w3.org/2000/svg">
<path d="M7.54883 10.0781C8.00911 10.2604 8.42839 10.502 8.80664 10.8027C9.1849 11.1035 9.50846 11.4521 9.77734 11.8486C10.0462 12.2451 10.2536 12.6712 10.3994 13.127C10.5452 13.5827 10.6204 14.0612 10.625 14.5625V15H9.75V14.5625C9.75 14.0202 9.64746 13.5098 9.44238 13.0312C9.2373 12.5527 8.95475 12.1357 8.59473 11.7803C8.2347 11.4248 7.81771 11.1445 7.34375 10.9395C6.86979 10.7344 6.35938 10.6296 5.8125 10.625C5.27018 10.625 4.75977 10.7275 4.28125 10.9326C3.80273 11.1377 3.38574 11.4202 3.03027 11.7803C2.6748 12.1403 2.39453 12.5573 2.18945 13.0312C1.98438 13.5052 1.87956 14.0156 1.875 14.5625V15H1V14.5625C1 14.0658 1.07292 13.5872 1.21875 13.127C1.36458 12.6667 1.57422 12.2406 1.84766 11.8486C2.12109 11.4567 2.44466 11.1104 2.81836 10.8096C3.19206 10.5088 3.61133 10.265 4.07617 10.0781C3.87109 9.93685 3.68652 9.77279 3.52246 9.58594C3.3584 9.39909 3.2194 9.19857 3.10547 8.98438C2.99154 8.77018 2.90495 8.54232 2.8457 8.30078C2.78646 8.05924 2.75456 7.81315 2.75 7.5625C2.75 7.13867 2.82975 6.74219 2.98926 6.37305C3.14876 6.00391 3.36751 5.68034 3.64551 5.40234C3.9235 5.12435 4.24707 4.9056 4.61621 4.74609C4.98535 4.58659 5.38411 4.50456 5.8125 4.5C6.23633 4.5 6.63281 4.57975 7.00195 4.73926C7.37109 4.89876 7.69466 5.11751 7.97266 5.39551C8.25065 5.6735 8.4694 5.99707 8.62891 6.36621C8.78841 6.73535 8.87044 7.13411 8.875 7.5625C8.875 7.81315 8.84538 8.05697 8.78613 8.29395C8.72689 8.53092 8.63802 8.75879 8.51953 8.97754C8.40104 9.19629 8.26204 9.39909 8.10254 9.58594C7.94303 9.77279 7.75846 9.93685 7.54883 10.0781ZM5.8125 9.75C6.11328 9.75 6.39583 9.69303 6.66016 9.5791C6.92448 9.46517 7.15462 9.31022 7.35059 9.11426C7.54655 8.91829 7.70378 8.68587 7.82227 8.41699C7.94076 8.14811 8 7.86328 8 7.5625C8 7.26172 7.94303 6.97917 7.8291 6.71484C7.71517 6.45052 7.55794 6.22038 7.35742 6.02441C7.1569 5.82845 6.92448 5.67122 6.66016 5.55273C6.39583 5.43424 6.11328 5.375 5.8125 5.375C5.51172 5.375 5.22917 5.43197 4.96484 5.5459C4.70052 5.65983 4.4681 5.81706 4.26758 6.01758C4.06706 6.2181 3.90983 6.45052 3.7959 6.71484C3.68197 6.97917 3.625 7.26172 3.625 7.5625C3.625 7.86328 3.68197 8.14583 3.7959 8.41016C3.90983 8.67448 4.06478 8.9069 4.26074 9.10742C4.45671 9.30794 4.68913 9.46517 4.95801 9.5791C5.22689 9.69303 5.51172 9.75 5.8125 9.75ZM15 1V8H13.25L10.625 10.625V8H9.75V7.125H11.5V8.5127L12.8877 7.125H14.125V1.875H5.375V3.44727C5.22917 3.46549 5.08333 3.48828 4.9375 3.51562C4.79167 3.54297 4.64583 3.58398 4.5 3.63867V1H15Z" fill="#C5C5C5"/>
</svg>
