<svg width="16" height="16" viewBox="0 0 16 16" fill="currentColor" xmlns="http://www.w3.org/2000/svg">
	<!-- Top bun -->
	<path d="M3 1.5A1.5 1.5 0 0 1 4.5 0h7A1.5 1.5 0 0 1 13 1.5V2H3v-.5z"/>

	<!-- Sesame seeds -->
	<circle cx="6" cy="1.2" r="0.3"/>
	<circle cx="8" cy="1" r="0.3"/>
	<circle cx="10" cy="1.2" r="0.3"/>

	<!-- Lettuce layer 1 -->
	<path d="M3 3c.4-.3.8-.3 1.2 0s.8.3 1.2 0 .8-.3 1.2 0 .8.3 1.2 0 .8-.3 1.2 0 .8.3 1.2 0S13 2.7 13 3v.4H3V3z"/>

	<!-- Cheese slice -->
	<path d="M4 4.4h8v0.8H4v-0.8z"/>

	<!-- Meat patty -->
	<rect x="4" y="5.6" width="8" height="1.2" rx="0.6"/>

	<!-- Lettuce layer 2 -->
	<path d="M3 7.2c.4-.3.8-.3 1.2 0s.8.3 1.2 0 .8-.3 1.2 0 .8.3 1.2 0 .8-.3 1.2 0 .8.3 1.2 0S13 6.9 13 7.2V7.7H3v-.5z"/>

	<!-- Bottom bun -->
	<path d="M3 8.6h10v0.9a1.5 1.5 0 0 1-1.5 1.5h-7A1.5 1.5 0 0 1 3 9.5v-0.9z"/>
</svg>
