<svg width="16" height="16" viewBox="0 0 16 16" fill="none" xmlns="http://www.w3.org/2000/svg">
<path d="M9.12 4.37333L8.58667 1.97333H7.41333L6.88 4.37333L6.18667 4.69333L4.21333 3.41333L3.30667 4.21333L4.58667 6.18667L4.42667 6.88L2.02667 7.41333V8.58667L4.42667 9.12L4.69333 9.92L3.41333 11.8933L4.21333 12.6933L6.18667 11.4133L6.98667 11.68L7.41333 13.9733H8.58667L9.12 11.5733L9.92 11.3067L11.8933 12.5867L12.6933 11.7867L11.4133 9.81333L11.68 9.01333L14.0267 8.58667V7.41333L11.6267 6.88L11.3067 6.08L12.5867 4.10667L11.7867 3.30667L9.81333 4.58667L9.12 4.37333ZM9.38667 1.01333L9.92 3.41333L12 2.08L14.0267 4.10667L12.5867 6.18667L14.9867 6.61333V9.38667L12.5867 9.92L14.0267 12L12 13.9733L9.92 12.5867L9.38667 14.9867H6.61333L6.08 12.5867L4 13.92L2.02667 11.8933L3.41333 9.81333L1.01333 9.38667V6.61333L3.41333 6.08L2.08 4L4.10667 1.97333L6.18667 3.41333L6.61333 1.01333H9.38667ZM10.0267 8C10.0267 8.53333 9.81333 8.99556 9.38667 9.38667C8.99556 9.77778 8.53333 9.97333 8 9.97333C7.46667 9.97333 7.00444 9.77778 6.61333 9.38667C6.22222 8.99556 6.02667 8.53333 6.02667 8C6.02667 7.46667 6.22222 7.00444 6.61333 6.61333C7.00444 6.18667 7.46667 5.97333 8 5.97333C8.53333 5.97333 8.99556 6.18667 9.38667 6.61333C9.81333 7.00444 10.0267 7.46667 10.0267 8ZM8 9.01333C8.28444 9.01333 8.51556 8.92444 8.69333 8.74667C8.90667 8.53333 9.01333 8.28444 9.01333 8C9.01333 7.71556 8.90667 7.48444 8.69333 7.30667C8.51556 7.09333 8.28444 6.98667 8 6.98667C7.71556 6.98667 7.46667 7.09333 7.25333 7.30667C7.07556 7.48444 6.98667 7.71556 6.98667 8C6.98667 8.28444 7.07556 8.53333 7.25333 8.74667C7.46667 8.92444 7.71556 9.01333 8 9.01333Z" fill="#CCCCCC"/>
</svg>
