<svg width="16" height="16" viewBox="0 0 16 16" fill="none" xmlns="http://www.w3.org/2000/svg">
<path fill-rule="evenodd" clip-rule="evenodd" d="M4.54031 2.42136C4.37737 2.3127 4.18587 2.25481 3.99002 2.255C3.72771 2.25553 3.47631 2.36004 3.29092 2.54561C3.10554 2.73119 3.00129 2.98269 3.00102 3.245C3.00102 3.44085 3.05911 3.6323 3.16794 3.79512C3.27676 3.95795 3.43144 4.08484 3.6124 4.15974C3.79335 4.23464 3.99246 4.25419 4.18453 4.21591C4.3766 4.17763 4.553 4.08324 4.69141 3.94469C4.82982 3.80613 4.92403 3.62964 4.96212 3.43753C5.00021 3.24542 4.98046 3.04634 4.90537 2.86545C4.83029 2.68457 4.70324 2.53003 4.54031 2.42136ZM2.88444 1.59038C3.21169 1.37172 3.59644 1.255 3.99002 1.255C4.5178 1.255 5.02397 1.46466 5.39716 1.83786C5.77036 2.21106 5.98002 2.71722 5.98002 3.245C5.98002 3.63859 5.86331 4.02334 5.64465 4.35059C5.42598 4.67784 5.11519 4.93291 4.75156 5.08353C4.66588 5.11902 4.57817 5.14833 4.48909 5.17141V10H4.48293V10.827C4.82823 10.9153 5.14419 11.0949 5.39714 11.3479C5.67545 11.6262 5.86498 11.9807 5.94176 12.3668C6.01855 12.7528 5.97914 13.1529 5.82852 13.5165C5.6779 13.8802 5.42284 14.191 5.09558 14.4096C4.76833 14.6283 4.38358 14.745 3.99 14.745C3.46222 14.745 2.95605 14.5353 2.58286 14.1621C2.20966 13.7889 2 13.2828 2 12.755C2 12.3614 2.11671 11.9767 2.33538 11.6494C2.55404 11.3222 2.86483 11.0671 3.22846 10.9165C3.31414 10.881 3.40186 10.8517 3.49093 10.8286L3.49093 6H3.49709V5.17299C3.15179 5.08471 2.83583 4.9051 2.58288 4.65215C2.30457 4.37384 2.11504 4.01926 2.03826 3.63323C1.96147 3.24721 2.00088 2.84709 2.1515 2.48346C2.30212 2.11984 2.55718 1.80904 2.88444 1.59038ZM3.43971 13.5786C3.60265 13.6873 3.79415 13.7452 3.99 13.745C4.25231 13.7445 4.50371 13.64 4.6891 13.4544C4.87449 13.2688 4.97874 13.0173 4.979 12.755C4.979 12.5591 4.92091 12.3677 4.81209 12.2049C4.70326 12.0421 4.54858 11.9152 4.36763 11.8403C4.18667 11.7654 3.98756 11.7458 3.79549 11.7841C3.60342 11.8224 3.42702 11.9168 3.28861 12.0553C3.1502 12.1939 3.05599 12.3704 3.0179 12.5625C2.97981 12.7546 2.99956 12.9537 3.07465 13.1345C3.14973 13.3154 3.27678 13.47 3.43971 13.5786ZM10.2459 1.962L9.53894 1.255L7.06494 3.73L9.53894 6.205L10.2459 5.498L8.96702 4.21836L10.9981 4.28801C11.0625 4.28642 11.1265 4.29757 11.1865 4.32082C11.2465 4.34406 11.3013 4.37895 11.3478 4.42347C11.3943 4.46799 11.4315 4.52127 11.4573 4.58023C11.4831 4.63919 11.497 4.70267 11.4981 4.76701V10.831C11.2827 10.8865 11.077 10.9781 10.89 11.1029C10.5626 11.3214 10.3074 11.6322 10.1567 11.9958C10.0059 12.3594 9.96633 12.7595 10.043 13.1456C10.1197 13.5317 10.3091 13.8864 10.5874 14.1648C10.8657 14.4432 11.2202 14.6328 11.6063 14.7097C11.9923 14.7866 12.3925 14.7472 12.7562 14.5966C13.1199 14.446 13.4307 14.191 13.6494 13.8637C13.8681 13.5364 13.9849 13.1516 13.9849 12.758C13.9849 12.2304 13.7754 11.7244 13.4024 11.3512C13.1483 11.097 12.8325 10.9186 12.4901 10.8306V4.76301C12.4896 4.37213 12.3346 3.9973 12.0588 3.72025C11.7831 3.44319 11.409 3.28639 11.0181 3.28401L8.99131 3.21735L10.2459 1.962ZM11.9959 11.768C12.1917 11.768 12.3831 11.8261 12.5459 11.9349C12.7087 12.0436 12.8356 12.1983 12.9105 12.3791C12.9855 12.56 13.0051 12.7591 12.9669 12.9511C12.9287 13.1432 12.8344 13.3196 12.6959 13.458C12.5575 13.5965 12.3811 13.6908 12.189 13.729C11.997 13.7672 11.7979 13.7476 11.617 13.6726C11.4361 13.5977 11.2815 13.4708 11.1727 13.308C11.0639 13.1452 11.0059 12.9538 11.0059 12.758C11.0061 12.4955 11.1105 12.2439 11.2961 12.0583C11.4817 11.8727 11.7334 11.7683 11.9959 11.768Z" fill="#424242"/>
</svg>
