<svg xmlns="http://www.w3.org/2000/svg" aria-hidden="true" viewBox="-2 0 16 16"  width="9" height="12" version="1.1">
	<path fill-rule="evenodd" d="M 11 11.28 V 5 c -0.03 -0.78 -0.34 -1.47 -0.94 -2.06 C 9.46 2.35 8.78 2.03 8 2 H 7 V 0 L 4 3 l 3 3 V 4 h 1 c 0.27 0.02 0.48 0.11 0.69 0.31 c 0.21 0.2 0.3 0.42 0.31 0.69 v 6.28 A 1.993 1.993 0 0 0 10 15 a 1.993 1.993 0 0 0 1 -3.72 Z m -1 2.92 c -0.66 0 -1.2 -0.55 -1.2 -1.2 c 0 -0.65 0.55 -1.2 1.2 -1.2 c 0.65 0 1.2 0.55 1.2 1.2 c 0 0.65 -0.55 1.2 -1.2 1.2 Z M 4 3 c 0 -1.11 -0.89 -2 -2 -2 a 1.993 1.993 0 0 0 -1 3.72 v 6.56 A 1.993 1.993 0 0 0 2 15 a 1.993 1.993 0 0 0 1 -3.72 V 4.72 c 0.59 -0.34 1 -0.98 1 -1.72 Z m -0.8 10 c 0 0.66 -0.55 1.2 -1.2 1.2 c -0.65 0 -1.2 -0.55 -1.2 -1.2 c 0 -0.65 0.55 -1.2 1.2 -1.2 c 0.65 0 1.2 0.55 1.2 1.2 Z M 2 4.2 C 1.34 4.2 0.8 3.65 0.8 3 c 0 -0.65 0.55 -1.2 1.2 -1.2 c 0.65 0 1.2 0.55 1.2 1.2 c 0 0.65 -0.55 1.2 -1.2 1.2 Z"
	/>
</svg>