<svg width="24" height="24" viewBox="0 0 24 24" fill="none" xmlns="http://www.w3.org/2000/svg">
<path d="M12 22.75C17.9371 22.75 22.75 17.9371 22.75 12C22.75 6.06294 17.9371 1.25 12 1.25C6.06294 1.25 1.25 6.06294 1.25 12C1.25 17.9371 6.06294 22.75 12 22.75Z" stroke="white" stroke-width="1.5"/>
<path d="M14.4721 20.9952C14.4721 20.6603 14.488 19.5917 14.488 18.252C14.488 17.327 14.1691 16.7049 13.8022 16.4019C16.0351 16.1467 18.3636 15.3014 18.3636 11.4737C18.3636 10.3892 17.9809 9.49601 17.3429 8.79426C17.4386 8.53908 17.7895 7.51834 17.2472 6.14673C17.2472 6.14673 16.4019 5.8756 14.504 7.16747C13.7065 6.94418 12.8453 6.83254 12 6.83254C11.1547 6.83254 10.2935 6.94418 9.49601 7.16747C7.58214 5.8756 6.75279 6.14673 6.75279 6.14673C6.21052 7.51834 6.54545 8.53908 6.6571 8.79426C6.01914 9.49601 5.62041 10.3892 5.62041 11.4737C5.62041 15.3014 7.94896 16.1627 10.1818 16.4179C9.89474 16.673 9.63955 17.1037 9.54386 17.7576C8.9697 18.0128 7.51834 18.4593 6.64115 16.9282C6.64115 16.9282 6.11483 15.9713 5.11005 15.8915C5.11005 15.8915 4.13716 15.8756 5.04625 16.4976C5.04625 16.4976 5.70016 16.8006 6.16268 17.9649C6.16268 17.9649 6.75279 19.9107 9.52791 19.3046C9.52791 20.134 9.54386 20.7719 9.54386 21.0112C9.54386 21.2823 9.36842 21.5853 8.874 21.4896C9.86284 21.8246 10.9155 22 12.0319 22C13.1324 22 14.185 21.8246 15.1898 21.4896C14.6475 21.5694 14.4721 21.2663 14.4721 20.9952Z" fill="white"/>
</svg>
