<svg width="16" height="16" viewBox="0 0 16 16" fill="none" xmlns="http://www.w3.org/2000/svg">
<path fill-rule="evenodd" clip-rule="evenodd" d="M7.5 13C10.4887 13 12.9206 10.6162 12.9981 7.64618L13.9505 6.69379C13.9832 6.95794 14 7.22701 14 7.5C14 11.0899 11.0899 14 7.5 14C3.91015 14 1 11.0899 1 7.5C1 3.91015 3.91015 1 7.5 1C9.65167 1 11.5592 2.04548 12.7422 3.65615L12.0261 4.37432C11.0335 2.93976 9.37651 2 7.5 2C4.46243 2 2 4.46243 2 7.5C2 10.5376 4.46243 13 7.5 13ZM13.697 5.53295L15 4.23002L14.29 3.52002L10.88 6.93993L9.50001 5.55986L8.79001 6.26986L10.52 7.99993H11.23L12.8797 6.35033C12.8797 6.35036 12.8797 6.35038 12.8797 6.3504L13.6971 5.53301C13.6971 5.53299 13.6971 5.53297 13.697 5.53295ZM7 7V9H8V7V4H7V7ZM7 11V10H8V11H7Z" fill="#424242"/>
</svg>
