<?xml version="1.0" standalone="no"?>
<!DOCTYPE svg PUBLIC "-//W3C//DTD SVG 20010904//EN"
 "http://www.w3.org/TR/2001/REC-SVG-20010904/DTD/svg10.dtd">
<svg version="1.0" xmlns="http://www.w3.org/2000/svg"
 width="400.000000pt" height="400.000000pt" viewBox="0 0 400.000000 400.000000"
 preserveAspectRatio="xMidYMid meet">

<g transform="translate(0.000000,400.000000) scale(0.100000,-0.100000)"
fill="#000000" stroke="none">
<path d="M0 2000 l0 -2000 2000 0 2000 0 0 2000 0 2000 -2000 0 -2000 0 0
-2000z m1930 1013 c85 -55 255 -164 377 -242 l222 -142 48 6 c26 4 84 13 128
20 44 8 100 17 125 20 25 4 78 13 119 21 40 7 76 12 80 10 3 -2 5 -316 3 -698
l-3 -693 -181 -145 c-99 -80 -223 -180 -277 -223 -53 -44 -99 -81 -103 -83 -4
-3 -105 32 -225 77 -120 45 -234 88 -253 95 -19 7 -118 44 -220 82 l-185 70
-5 -164 -5 -164 -220 290 c-121 160 -231 305 -244 323 -19 25 -59 48 -182 101
l-159 70 0 329 0 328 111 137 c89 110 118 139 147 148 21 7 96 29 167 49 72
21 157 46 190 56 150 46 306 89 320 89 13 0 15 24 15 173 0 96 3 177 7 180 3
4 16 1 27 -7 12 -7 91 -58 176 -113z"/>
<path d="M2415 2600 c-202 -42 -296 -61 -418 -85 -70 -14 -146 -29 -170 -34
-23 -5 -91 -19 -152 -31 -60 -12 -139 -28 -175 -35 -36 -7 -112 -23 -170 -34
-58 -11 -134 -26 -170 -33 l-65 -13 -3 -412 -2 -412 52 -5 c29 -4 94 -8 143
-11 50 -2 176 -11 280 -20 105 -8 285 -22 400 -30 116 -9 233 -18 260 -20 28
-2 95 -7 150 -10 55 -3 112 -8 128 -11 l27 -6 0 611 c0 483 -3 611 -12 610 -7
0 -53 -9 -103 -19z"/>
</g>
</svg>
