<?xml version="1.0" encoding="UTF-8"?>
<svg xmlns="http://www.w3.org/2000/svg" xmlns:xlink="http://www.w3.org/1999/xlink" width="22pt" height="22pt" viewBox="0 0 28 28" version="1.1">
<g id="surface1">
<path style=" stroke:none;fill-rule:evenodd;fill:#FFFFFF;fill-opacity:1;" d="M 14 0 C 6.265625 0 0 6.265625 0 14 C 0 20.195312 4.007812 25.425781 9.574219 27.285156 C 10.273438 27.402344 10.535156 26.984375 10.535156 26.617188 C 10.535156 26.285156 10.515625 25.183594 10.515625 24.011719 C 7 24.660156 6.089844 23.152344 5.808594 22.363281 C 5.652344 21.960938 4.972656 20.722656 4.375 20.386719 C 3.886719 20.125 3.183594 19.476562 4.359375 19.460938 C 5.460938 19.441406 6.246094 20.476562 6.511719 20.894531 C 7.769531 23.011719 9.785156 22.417969 10.585938 22.050781 C 10.710938 21.140625 11.078125 20.527344 11.480469 20.175781 C 8.363281 19.828125 5.109375 18.621094 5.109375 13.265625 C 5.109375 11.742188 5.652344 10.484375 6.546875 9.503906 C 6.402344 9.152344 5.914062 7.714844 6.683594 5.792969 C 6.683594 5.792969 7.859375 5.425781 10.535156 7.226562 C 11.652344 6.914062 12.847656 6.753906 14.035156 6.753906 C 15.226562 6.753906 16.414062 6.914062 17.535156 7.226562 C 20.210938 5.410156 21.386719 5.792969 21.386719 5.792969 C 22.152344 7.714844 21.664062 9.152344 21.523438 9.503906 C 22.417969 10.484375 22.960938 11.726562 22.960938 13.265625 C 22.960938 18.636719 19.6875 19.828125 16.574219 20.175781 C 17.078125 20.613281 17.515625 21.453125 17.515625 22.765625 C 17.515625 24.640625 17.5 26.144531 17.5 26.617188 C 17.5 26.984375 17.761719 27.421875 18.460938 27.285156 C 24.160156 25.359375 27.996094 20.015625 28 14 C 28 6.265625 21.734375 0 14 0 Z M 14 0 "/>
</g>
</svg>
