<svg width="16" height="16" viewBox="0 0 16 16" xmlns="http://www.w3.org/2000/svg" fill="currentColor"><path d="M8 2C4.686 2 2 4.686 2 8C2 11.314 4.686 14 8 14C11.314 14 14 11.314 14 8C14 4.686 11.314 2 8 2ZM1 8C1 4.134 4.134 1 8 1C11.866 1 15 4.134 15 8C15 11.866 11.866 15 8 15C4.134 15 1 11.866 1 8ZM8 12.25C9.933 12.25 11.5 11.036 11.5 9.214C11.5 8.543 10.956 8 10.286 8H5.715C5.044 8 4.501 8.544 4.501 9.214C4.501 11.035 6.068 12.25 8.001 12.25H8ZM8 7.25C9.036 7.25 9.875 6.411 9.875 5.375C9.875 4.339 9.036 3.5 8 3.5C6.964 3.5 6.125 4.339 6.125 5.375C6.125 6.411 6.964 7.25 8 7.25Z"/></svg>