<svg width="18" height="18" viewBox="0 0 18 18" xmlns="http://www.w3.org/2000/svg" fill="currentColor"><path d="M12.1465 5.14652C12.3418 4.95127 12.6583 4.95126 12.8535 5.14652C13.0487 5.34179 13.0488 5.65831 12.8535 5.85355L9.70705 9.00004L12.8535 12.1465C13.0488 12.3418 13.0488 12.6583 12.8535 12.8536C12.6583 13.0488 12.3418 13.0488 12.1465 12.8536L9.00002 9.70707L5.85354 12.8536C5.6583 13.0488 5.34177 13.0488 5.14651 12.8536C4.95125 12.6583 4.95125 12.3418 5.14651 12.1465L8.29299 9.00004L5.14651 5.85355C4.95125 5.6583 4.95126 5.34179 5.14651 5.14652C5.34177 4.95126 5.65828 4.95126 5.85354 5.14652L9.00002 8.29301L12.1465 5.14652Z"/></svg>