<svg width="18" height="18" viewBox="0 0 18 18" xmlns="http://www.w3.org/2000/svg" fill="currentColor"><path d="M9 2C5.14 2 2 5.14 2 9C2 12.86 5.14 16 9 16C12.86 16 16 12.86 16 9C16 5.14 12.86 2 9 2ZM9 15C5.691 15 3 12.309 3 9C3 5.691 5.691 3 9 3C12.309 3 15 5.691 15 9C15 12.309 12.309 15 9 15ZM11.854 6.854L9.708 9L11.854 11.146C12.049 11.341 12.049 11.658 11.854 11.853C11.756 11.951 11.628 11.999 11.5 11.999C11.372 11.999 11.244 11.95 11.146 11.853L9 9.707L6.854 11.853C6.756 11.951 6.628 11.999 6.5 11.999C6.372 11.999 6.244 11.95 6.146 11.853C5.951 11.658 5.951 11.341 6.146 11.146L8.292 9L6.146 6.854C5.951 6.659 5.951 6.342 6.146 6.147C6.341 5.952 6.658 5.952 6.853 6.147L8.999 8.293L11.145 6.147C11.34 5.952 11.657 5.952 11.852 6.147C12.047 6.342 12.047 6.659 11.852 6.854H11.854Z"/></svg>