<svg width="16" height="16" viewBox="0 0 16 16" xmlns="http://www.w3.org/2000/svg" fill="currentColor"><path d="M11.5 5.99998C10.9265 6.00006 10.3704 6.19736 9.92505 6.55877C9.47971 6.92018 9.17217 7.42373 9.05402 7.98498C7.17202 7.85998 5.46602 6.96298 5.08102 5.93098C5.67998 5.78724 6.20478 5.42744 6.55479 4.92058C6.9048 4.41373 7.05538 3.7955 6.97763 3.18446C6.89989 2.57343 6.5993 2.0126 6.13352 1.60954C5.66774 1.20648 5.06956 0.989562 4.45369 1.00039C3.83782 1.01121 3.24763 1.24902 2.7963 1.6682C2.34497 2.08738 2.06428 2.65842 2.00806 3.27181C1.95184 3.8852 2.12404 4.49776 2.49165 4.992C2.85925 5.48624 3.39638 5.82737 4.00002 5.94998V10.05C3.393 10.1739 2.85361 10.5188 2.48642 11.0178C2.11923 11.5168 1.95041 12.1343 2.01268 12.7507C2.07495 13.3671 2.36387 13.9385 2.82344 14.3539C3.28301 14.7694 3.88048 14.9995 4.50002 14.9995C5.11956 14.9995 5.71703 14.7694 6.1766 14.3539C6.63616 13.9385 6.92509 13.3671 6.98736 12.7507C7.04963 12.1343 6.88081 11.5168 6.51362 11.0178C6.14643 10.5188 5.60704 10.1739 5.00002 10.05V7.46598C6.15462 8.38805 7.57188 8.92022 9.04802 8.98598C9.1401 9.4506 9.36227 9.8795 9.68867 10.2227C10.0151 10.566 10.4323 10.8094 10.8917 10.9248C11.3511 11.0401 11.8338 11.0225 12.2836 10.8741C12.7334 10.7257 13.1318 10.4526 13.4324 10.0865C13.733 9.72047 13.9234 9.27655 13.9815 8.80647C14.0395 8.33639 13.9629 7.85948 13.7604 7.43128C13.5579 7.00308 13.238 6.64122 12.8378 6.38782C12.4376 6.13442 11.9737 5.99992 11.5 5.99998ZM3.00002 3.49998C3.00002 3.20331 3.08799 2.9133 3.25282 2.66662C3.41764 2.41995 3.65191 2.22769 3.92599 2.11416C4.20008 2.00063 4.50168 1.97092 4.79265 2.0288C5.08363 2.08668 5.3509 2.22954 5.56068 2.43932C5.77046 2.6491 5.91332 2.91637 5.9712 3.20734C6.02908 3.49831 5.99937 3.79991 5.88584 4.074C5.77231 4.34809 5.58005 4.58236 5.33337 4.74718C5.0867 4.912 4.79669 4.99998 4.50002 4.99998C4.10219 4.99998 3.72066 4.84194 3.43936 4.56064C3.15805 4.27933 3.00002 3.8978 3.00002 3.49998ZM6.00002 12.5C6.00002 12.7966 5.91205 13.0867 5.74722 13.3333C5.5824 13.58 5.34813 13.7723 5.07404 13.8858C4.79996 13.9993 4.49836 14.029 4.20738 13.9712C3.91641 13.9133 3.64914 13.7704 3.43936 13.5606C3.22958 13.3509 3.08672 13.0836 3.02884 12.7926C2.97096 12.5016 3.00067 12.2 3.1142 11.926C3.22773 11.6519 3.41999 11.4176 3.66666 11.2528C3.91334 11.088 4.20335 11 4.50002 11C4.89784 11 5.27938 11.158 5.56068 11.4393C5.84198 11.7206 6.00002 12.1022 6.00002 12.5ZM11.5 9.99998C11.2033 9.99998 10.9133 9.91201 10.6667 9.74718C10.42 9.58236 10.2277 9.34809 10.1142 9.074C10.0007 8.79991 9.97096 8.49831 10.0288 8.20734C10.0867 7.91637 10.2296 7.6491 10.4394 7.43932C10.6491 7.22954 10.9164 7.08668 11.2074 7.0288C11.4984 6.97092 11.8 7.00063 12.074 7.11416C12.3481 7.22769 12.5824 7.41995 12.7472 7.66662C12.912 7.9133 13 8.20331 13 8.49998C13 8.8978 12.842 9.27933 12.5607 9.56064C12.2794 9.84194 11.8978 9.99998 11.5 9.99998Z"/></svg>