<svg width="16" height="16" viewBox="0 0 16 16" xmlns="http://www.w3.org/2000/svg" fill="currentColor"><path d="M13 10.05V7.5C13 7.224 12.776 7 12.5 7C12.224 7 12 7.224 12 7.5V10.05C10.86 10.282 10 11.292 10 12.5C10 13.879 11.122 15 12.5 15C13.878 15 15 13.879 15 12.5C15 11.292 14.14 10.283 13 10.05ZM12.5 14C11.673 14 11 13.327 11 12.5C11 11.673 11.673 11 12.5 11C13.327 11 14 11.673 14 12.5C14 13.327 13.327 14 12.5 14ZM6 3.5C6 2.12 4.88 1 3.5 1C2.12 1 1 2.12 1 3.5C1 4.71 1.86 5.72 3 5.95V10.051C1.86 10.283 1 11.293 1 12.5C1 13.879 2.122 15 3.5 15C4.878 15 6 13.879 6 12.5C6 11.292 5.14 10.283 4 10.051V5.95C5.14 5.72 6 4.71 6 3.5ZM5 12.5C5 13.327 4.327 14 3.5 14C2.673 14 2 13.327 2 12.5C2 11.673 2.673 11 3.5 11C4.327 11 5 11.673 5 12.5ZM3.5 5C2.67 5 2 4.33 2 3.5C2 2.67 2.67 2 3.5 2C4.33 2 5 2.67 5 3.5C5 4.33 4.33 5 3.5 5ZM10.646 4.646L11.792 3.5L10.646 2.354C10.451 2.159 10.451 1.842 10.646 1.647C10.841 1.452 11.158 1.452 11.353 1.647L12.499 2.793L13.645 1.647C13.84 1.452 14.157 1.452 14.352 1.647C14.547 1.842 14.547 2.159 14.352 2.354L13.206 3.5L14.352 4.646C14.547 4.841 14.547 5.158 14.352 5.353C14.254 5.451 14.126 5.499 13.998 5.499C13.87 5.499 13.742 5.45 13.644 5.353L12.498 4.207L11.352 5.353C11.254 5.451 11.126 5.499 10.998 5.499C10.87 5.499 10.742 5.45 10.644 5.353C10.449 5.158 10.449 4.841 10.644 4.646H10.646Z"/></svg>