<svg width="16" height="16" viewBox="0 0 16 16" xmlns="http://www.w3.org/2000/svg" fill="currentColor"><path d="M6 3.5C6 2.12 4.88 1 3.5 1C2.12 1 1 2.12 1 3.5C1 4.71 1.86 5.72 3 5.95V10.051C1.86 10.283 1 11.293 1 12.5C1 13.879 2.122 15 3.5 15C4.878 15 6 13.879 6 12.5C6 11.292 5.14 10.283 4 10.051V5.95C5.14 5.72 6 4.71 6 3.5ZM5 12.5C5 13.327 4.327 14 3.5 14C2.673 14 2 13.327 2 12.5C2 11.673 2.673 11 3.5 11C4.327 11 5 11.673 5 12.5ZM3.5 5C2.67 5 2 4.33 2 3.5C2 2.67 2.67 2 3.5 2C4.33 2 5 2.67 5 3.5C5 4.33 4.33 5 3.5 5ZM12.5 10C11.122 10 10 11.121 10 12.5C10 13.879 11.122 15 12.5 15C13.878 15 15 13.879 15 12.5C15 11.121 13.878 10 12.5 10ZM12.5 14C11.673 14 11 13.327 11 12.5C11 11.673 11.673 11 12.5 11C13.327 11 14 11.673 14 12.5C14 13.327 13.327 14 12.5 14ZM11.5 7.5C11.5 6.948 11.948 6.5 12.5 6.5C13.052 6.5 13.5 6.948 13.5 7.5C13.5 8.052 13.052 8.5 12.5 8.5C11.948 8.5 11.5 8.052 11.5 7.5ZM11.5 3.5C11.5 2.948 11.948 2.5 12.5 2.5C13.052 2.5 13.5 2.948 13.5 3.5C13.5 4.052 13.052 4.5 12.5 4.5C11.948 4.5 11.5 4.052 11.5 3.5Z"/></svg>