<svg width="16" height="16" viewBox="0 0 16 16" xmlns="http://www.w3.org/2000/svg" fill="currentColor"><path d="M4 1.5C4 1.776 3.776 2 3.5 2H3C2.449 2 2 2.449 2 3V3.5C2 3.776 1.776 4 1.5 4C1.224 4 1 3.776 1 3.5V3C1 1.897 1.897 1 3 1H3.5C3.776 1 4 1.224 4 1.5ZM1.5 8C1.776 8 2 7.776 2 7.5V5.5C2 5.224 1.776 5 1.5 5C1.224 5 1 5.224 1 5.5V7.5C1 7.776 1.224 8 1.5 8ZM1.5 12C1.776 12 2 11.776 2 11.5V9.5C2 9.224 1.776 9 1.5 9C1.224 9 1 9.224 1 9.5V11.5C1 11.776 1.224 12 1.5 12ZM3.5 15H3C2.449 15 2 14.551 2 14V13.5C2 13.224 1.776 13 1.5 13C1.224 13 1 13.224 1 13.5V14C1 15.103 1.897 16 3 16H3.5C3.776 16 4 15.776 4 15.5C4 15.224 3.776 15 3.5 15ZM10.5 2H11C11.551 2 12 2.449 12 3V3.5C12 3.776 12.224 4 12.5 4C12.776 4 13 3.776 13 3.5V3C13 1.897 12.103 1 11 1H10.5C10.224 1 10 1.224 10 1.5C10 1.776 10.224 2 10.5 2ZM5.5 2H8.5C8.776 2 9 1.776 9 1.5C9 1.224 8.776 1 8.5 1H5.5C5.224 1 5 1.224 5 1.5C5 1.776 5.224 2 5.5 2ZM14 7V14C14 15.103 13.103 16 12 16H7C5.897 16 5 15.103 5 14V7C5 5.897 5.897 5 7 5H12C13.103 5 14 5.897 14 7ZM13 7C13 6.449 12.551 6 12 6H7C6.449 6 6 6.449 6 7V14C6 14.551 6.449 15 7 15H12C12.551 15 13 14.551 13 14V7ZM11.5 8H7.5C7.224 8 7 8.224 7 8.5C7 8.776 7.224 9 7.5 9H11.5C11.776 9 12 8.776 12 8.5C12 8.224 11.776 8 11.5 8ZM15.5 7H15V9H15.5C15.776 9 16 8.776 16 8.5V7.5C16 7.224 15.776 7 15.5 7ZM15.5 10H15V12H15.5C15.776 12 16 11.776 16 11.5V10.5C16 10.224 15.776 10 15.5 10ZM15.5 13H15V15H15.5C15.776 15 16 14.776 16 14.5V13.5C16 13.224 15.776 13 15.5 13Z"/></svg>