<svg width="16" height="16" viewBox="0 0 16 16" xmlns="http://www.w3.org/2000/svg" fill="currentColor"><path d="M10.6484 5.64648C10.8434 5.45148 11.1605 5.45148 11.3555 5.64648C11.5498 5.84137 11.5499 6.15766 11.3555 6.35254L7.35547 10.3525C7.25747 10.4495 7.12898 10.499 7.00098 10.499C6.87299 10.499 6.74545 10.4505 6.64746 10.3525L4.64746 8.35254C4.45247 8.15754 4.45248 7.84148 4.64746 7.64648C4.84246 7.45148 5.15949 7.45148 5.35449 7.64648L7 9.29199L10.6465 5.64648H10.6484Z"/><path fill-rule="evenodd" clip-rule="evenodd" d="M8 1C11.86 1 15 4.14 15 8C15 11.86 11.86 15 8 15C4.14 15 1 11.86 1 8C1 4.14 4.14 1 8 1ZM8 2C4.691 2 2 4.691 2 8C2 11.309 4.691 14 8 14C11.309 14 14 11.309 14 8C14 4.691 11.309 2 8 2Z"/></svg>