<svg width="18" height="18" viewBox="0 0 18 18" xmlns="http://www.w3.org/2000/svg" fill="currentColor"><path d="M11.6484 6.64648C11.8434 6.45148 12.1605 6.45148 12.3555 6.64648C12.5498 6.84137 12.5499 7.15766 12.3555 7.35254L8.35547 11.3525C8.25747 11.4495 8.12898 11.499 8.00098 11.499C7.87299 11.499 7.74545 11.4505 7.64746 11.3525L5.64746 9.35254C5.45247 9.15754 5.45248 8.84148 5.64746 8.64648C5.84246 8.45148 6.15949 8.45148 6.35449 8.64648L8 10.292L11.6465 6.64648H11.6484Z"/><path fill-rule="evenodd" clip-rule="evenodd" d="M9 2C12.86 2 16 5.14 16 9C16 12.86 12.86 16 9 16C5.14 16 2 12.86 2 9C2 5.14 5.14 2 9 2ZM9 3C5.691 3 3 5.691 3 9C3 12.309 5.691 15 9 15C12.309 15 15 12.309 15 9C15 5.691 12.309 3 9 3Z"/></svg>