<svg width="18" height="18" viewBox="0 0 18 18" xmlns="http://www.w3.org/2000/svg" fill="currentColor"><path d="M6.99902 3.99902C7.55101 3.99904 7.99902 4.44703 7.99902 4.99902V5.99902C7.99902 8.59102 7.47153 10.7335 5.35254 12.8525C5.15754 13.0475 4.84148 13.0475 4.64648 12.8525C4.45148 12.6575 4.45148 12.3415 4.64648 12.1465C6.03348 10.7605 6.65377 9.38594 6.88477 7.79395C6.61781 7.9259 6.31794 8 6 8H5C4.448 8 4 7.552 4 7V5C4.00001 4.44801 4.44801 4 5 4H7L6.99902 3.99902Z"/><path d="M12.999 3.99902C13.551 3.99904 13.999 4.44703 13.999 4.99902V5.99902C13.999 8.59102 13.4715 10.7335 11.3525 12.8525C11.1575 13.0475 10.8415 13.0475 10.6465 12.8525C10.4515 12.6575 10.4515 12.3415 10.6465 12.1465C12.0335 10.7605 12.6538 9.38594 12.8848 7.79395C12.6178 7.9259 12.3179 8 12 8H11C10.448 8 10 7.552 10 7V5C10 4.44801 10.448 4 11 4H13L12.999 3.99902Z"/></svg>