<svg width="16" height="16" viewBox="0 0 16 16" xmlns="http://www.w3.org/2000/svg" fill="currentColor"><path d="M5.99902 2.99902C6.55101 2.99904 6.99902 3.44703 6.99902 3.99902V4.99902C6.99902 7.59102 6.47153 9.73354 4.35254 11.8525C4.15754 12.0475 3.84148 12.0475 3.64648 11.8525C3.45148 11.6575 3.45148 11.3415 3.64648 11.1465C5.03348 9.76049 5.65377 8.38594 5.88477 6.79395C5.61781 6.9259 5.31794 7 5 7H4C3.448 7 3 6.552 3 6V4C3.00001 3.44801 3.44801 3 4 3H6L5.99902 2.99902Z"/><path d="M11.999 2.99902C12.551 2.99904 12.999 3.44703 12.999 3.99902V4.99902C12.999 7.59102 12.4715 9.73354 10.3525 11.8525C10.1575 12.0475 9.84148 12.0475 9.64648 11.8525C9.45148 11.6575 9.45148 11.3415 9.64648 11.1465C11.0335 9.76049 11.6538 8.38594 11.8848 6.79395C11.6178 6.9259 11.3179 7 11 7H10C9.448 7 9 6.552 9 6V4C9.00001 3.44801 9.44801 3 10 3H12L11.999 2.99902Z"/></svg>