<svg width="16" height="16" viewBox="0 0 16 16" xmlns="http://www.w3.org/2000/svg" fill="currentColor"><path d="M4.85401 2.14649C5.04901 2.34149 5.04901 2.65849 4.85401 2.85349L2.85401 4.85349C2.65901 5.04849 2.34201 5.04849 2.14701 4.85349L1.14701 3.85349C0.952013 3.65849 0.952013 3.34149 1.14701 3.14649C1.34201 2.95149 1.65901 2.95149 1.85401 3.14649L2.50001 3.79249L4.14601 2.14649C4.34101 1.95149 4.65901 1.95149 4.85401 2.14649ZM14.5 4.00049H6.50001C6.22401 4.00049 6.00001 3.77649 6.00001 3.50049C6.00001 3.22449 6.22401 3.00049 6.50001 3.00049H14.5C14.776 3.00049 15 3.22449 15 3.50049C15 3.77649 14.776 4.00049 14.5 4.00049ZM4.85401 11.1465C5.04901 11.3415 5.04901 11.6585 4.85401 11.8535L2.85401 13.8535C2.65901 14.0485 2.34201 14.0485 2.14701 13.8535L1.14701 12.8535C0.952013 12.6585 0.952013 12.3415 1.14701 12.1465C1.34201 11.9515 1.65901 11.9515 1.85401 12.1465L2.50001 12.7925L4.14601 11.1465C4.34101 10.9515 4.65901 10.9515 4.85401 11.1465ZM14.5 13.0005H6.50001C6.22401 13.0005 6.00001 12.7765 6.00001 12.5005C6.00001 12.2245 6.22401 12.0005 6.50001 12.0005H14.5C14.776 12.0005 15 12.2245 15 12.5005C15 12.7765 14.776 13.0005 14.5 13.0005ZM4.85401 6.64649C5.04901 6.84149 5.04901 7.15849 4.85401 7.35349L2.85401 9.35349C2.65901 9.54849 2.34201 9.54849 2.14701 9.35349L1.14701 8.35349C0.952013 8.15849 0.952013 7.84149 1.14701 7.64649C1.34201 7.45149 1.65901 7.45149 1.85401 7.64649L2.50001 8.29249L4.14601 6.64649C4.34101 6.45149 4.65901 6.45149 4.85401 6.64649ZM14.5 8.50049H6.50001C6.22401 8.50049 6.00001 8.27649 6.00001 8.00049C6.00001 7.72449 6.22401 7.50049 6.50001 7.50049H14.5C14.776 7.50049 15 7.72449 15 8.00049C15 8.27649 14.776 8.50049 14.5 8.50049Z"/></svg>