<svg width="16" height="16" viewBox="0 0 16 16" xmlns="http://www.w3.org/2000/svg" fill="currentColor"><path d="M2 3.50049C2 3.22435 2.22386 3.00049 2.5 3.00049H13.5C13.7761 3.00049 14 3.22435 14 3.50049C14 3.77663 13.7761 4.00049 13.5 4.00049H2.5C2.22386 4.00049 2 3.77663 2 3.50049ZM2 7.50049C2 7.22435 2.22386 7.00049 2.5 7.00049H13.5C13.7761 7.00049 14 7.22435 14 7.50049C14 7.77663 13.7761 8.00049 13.5 8.00049H2.5C2.22386 8.00049 2 7.77663 2 7.50049ZM2 11.5005C2 11.2243 2.22386 11.0005 2.5 11.0005H13.5C13.7761 11.0005 14 11.2243 14 11.5005C14 11.7766 13.7761 12.0005 13.5 12.0005H2.5C2.22386 12.0005 2 11.7766 2 11.5005Z"/></svg>