<svg width="18" height="18" viewBox="0 0 18 18" xmlns="http://www.w3.org/2000/svg" fill="currentColor"><path d="M15.831 12.965L10.206 2.714C9.965 2.274 9.503 2 9 2C8.497 2 8.035 2.274 7.794 2.714L2.169 12.965C2.059 13.167 2 13.395 2 13.625C2 14.383 2.617 15 3.375 15H14.625C15.383 15 16 14.383 16 13.625C16 13.395 15.941 13.167 15.831 12.965ZM14.625 14H3.375C3.168 14 3 13.832 3 13.625C3 13.561 3.016 13.5 3.046 13.445L8.671 3.195C8.736 3.075 8.863 3 9 3C9.137 3 9.264 3.075 9.329 3.195L14.954 13.445C14.984 13.501 15 13.561 15 13.625C15 13.832 14.832 14 14.625 14ZM9.75 12.25C9.75 12.664 9.414 13 9 13C8.586 13 8.25 12.664 8.25 12.25C8.25 11.836 8.586 11.5 9 11.5C9.414 11.5 9.75 11.836 9.75 12.25ZM8.5 10V6.5C8.5 6.224 8.724 6 9 6C9.276 6 9.5 6.224 9.5 6.5V10C9.5 10.276 9.276 10.5 9 10.5C8.724 10.5 8.5 10.276 8.5 10Z"/></svg>